<svg version="1.1" id="Layer_1" xmlns="http://www.w3.org/2000/svg" xmlns:xlink="http://www.w3.org/1999/xlink" x="0px" y="0px" width="127" viewBox="0 0 172 21.9" style="enable-background:new 0 0 172 21.9;" xml:space="preserve"><style type="text/css">.brand-c{fill:#1d3444}</style><path class="brand-c" d="M13.3,7.6l-4.2,9.1L4.9,7.6H0l6.3,12.8h5.6l6.3-12.8H13.3z"></path> <path class="brand-c" d="M28.8,20.4H33V7.6h-4.3V20.4z"></path> <path class="brand-c" d="M51.6,7.6c-5.6,0-7.9,0.4-7.9,4.2c0,3.3,2.7,3.6,7.9,4c3.4,0.3,3.7,0.2,3.7,0.6C55.4,17,55,17,52,17 c-3.3,0-3.6-0.2-3.6-1c-0.5,0-4.4,0-4.4,0c0,3.7,1,4.4,7.8,4.4c7.3,0,8.6-0.7,8.6-4c0-3.3-1.5-3.4-8.6-4c-3.2-0.3-3.5-0.3-3.5-0.6 c0-0.5,0.3-0.6,3.5-0.6c3.4,0,3.6,0.4,3.6,1c0.7,0,4.5,0,4.5,0C59.9,8.6,58.4,7.6,51.6,7.6z"></path> <path class="brand-c" d="M120.2,7.6v12.8h4.3v-3c0.7,0,2.6,0,3.9,0l2.2,3l4.9,0l-2.6-3.8c1.2-0.7,2.4-2,2.4-4.3c0-4.6-4.3-4.7-5.5-4.7 H120.2z M129.2,13.7c-0.6,0-4.8,0-4.8,0v-2.3c0,0,4.1,0,4.7,0c0.5,0,1.6,0,1.6,1.1C130.8,13.5,129.9,13.7,129.2,13.7z"></path> <path class="brand-c" d="M145.9,8.6V6.5h-2.6v2.1H145.9z"></path> <path class="brand-c" d="M160.3,0h-4.4l-3.8,8.6h3.3l0.6-1.4h4.2l0.6,1.4h3.3L160.3,0z M157,4.7l1.1-2.3l1.1,2.3H157z"></path> <path class="brand-c" d="M169.2,8.6h2.8V0h-2.8V8.6z"></path> <path class="brand-c" d="M102.5,21.9h-24c-4.3,0-7.8-3.5-7.8-7.8c0-4.3,3.5-7.8,7.8-7.8h24c4.3,0,7.8,3.5,7.8,7.8 C110.3,18.4,106.8,21.9,102.5,21.9z M78.5,10.7c-1.9,0-3.4,1.5-3.4,3.4s1.5,3.4,3.4,3.4h24c1.9,0,3.4-1.5,3.4-3.4s-1.5-3.4-3.4-3.4 H78.5z"></path></svg>